<?xml version="1.0" encoding="utf-8"?>
<svg xmlns="http://www.w3.org/2000/svg" xmlns:xlink="http://www.w3.org/1999/xlink" style="margin: auto; background: rgb(241, 242, 243); display: block; shape-rendering: auto;" width="200px" height="200px" viewBox="0 0 100 100" preserveAspectRatio="xMidYMid">
<g transform="translate(50 50)">
<g>
<animateTransform attributeName="transform" type="rotate" values="0;45" keyTimes="0;1" dur="0.2s" repeatCount="indefinite"></animateTransform><path d="M24.387496796514398 -5.5 L31.387496796514398 -5.5 L31.387496796514398 5.5 L24.387496796514398 5.5 A25 25 0 0 1 21.133651657506547 13.355477064454524 L21.133651657506547 13.355477064454524 L26.08339912581238 18.305224532760356 L18.305224532760356 26.083399125812377 L13.355477064454524 21.133651657506544 A25 25 0 0 1 5.500000000000001 24.387496796514398 L5.500000000000001 24.387496796514398 L5.500000000000002 31.387496796514398 L-5.4999999999999964 31.387496796514398 L-5.499999999999997 24.387496796514398 A25 25 0 0 1 -13.355477064454519 21.13365165750655 L-13.355477064454519 21.13365165750655 L-18.30522453276035 26.083399125812385 L-26.083399125812377 18.305224532760352 L-21.133651657506547 13.35547706445452 A25 25 0 0 1 -24.387496796514398 5.500000000000008 L-24.387496796514398 5.500000000000008 L-31.387496796514398 5.500000000000009 L-31.387496796514398 -5.500000000000001 L-24.387496796514398 -5.500000000000002 A25 25 0 0 1 -21.13365165750655 -13.355477064454515 L-21.13365165750655 -13.355477064454515 L-26.083399125812385 -18.30522453276035 L-18.305224532760356 -26.083399125812377 L-13.355477064454524 -21.133651657506547 A25 25 0 0 1 -5.500000000000009 -24.387496796514398 L-5.500000000000009 -24.387496796514398 L-5.50000000000001 -31.387496796514398 L5.499999999999999 -31.387496796514398 L5.5 -24.387496796514398 A25 25 0 0 1 13.355477064454515 -21.13365165750655 L13.355477064454515 -21.13365165750655 L18.30522453276035 -26.083399125812385 L26.083399125812377 -18.305224532760356 L21.133651657506547 -13.355477064454524 A25 25 0 0 1 24.387496796514398 -5.500000000000011 M0 -20A20 20 0 1 0 0 20 A20 20 0 1 0 0 -20" fill="#93dbe9"></path></g></g>
<!-- [ldio] generated by https://loading.io/ --></svg>